#!OML:ASF H:\MichaelJackson\Top Level 1\Subject 1\Session 1\male.ASF
:FULLY-SPECIFIED
:DEGREES
833
root -8.73729 16.8589 11.234 -171.572 -1.93331 -181.76
lowerback 3.52762 0.468821 -1.81288
upperback 5.16113 0.270157 -1.86951
thorax 3.33229 -0.0518915 -0.920787
lowerneck -12.2243 -0.0359327 1.02414
upperneck 28.0116 -2.62965 1.35741
head 11.0789 -1.57448 -0.15242
rclavicle -3.57812e-015 6.75868e-015
rhumerus -49.1665 8.0668 -94.5427
rradius 63.1384
rwrist 22.4864
rhand -19.0983 -29.5706
rfingers 7.12502
rthumb 7.21024 -59.4278
lclavicle -3.57812e-015 6.75868e-015
lhumerus -1.54117 -25.3805 70.5158
lradius 102.116
lwrist -11.2089
lhand -46.9818 -10.0133
lfingers 7.12502
lthumb -19.6897 19.0095
rfemur -39.2298 -8.20707 16.7719
rtibia 86.936
rfoot 23.9772 3.96121
rtoes 6.74446
lfemur -33.1056 5.61884 -23.3378
ltibia 40.0631
lfoot -17.9907 -3.30585
ltoes 13.2436
834
root -8.72377 16.8553 11.311 -171.494 -1.68617 -181.645
lowerback 3.38887 0.481446 -1.67064
upperback 5.08888 0.301054 -1.96768
thorax 3.33671 -0.0261418 -1.10101
lowerneck -12.2703 0.0540965 1.12577
upperneck 27.9419 -2.51253 1.37809
head 11.0609 -1.50426 -0.146332
rclavicle 4.17448e-015 2.54444e-014
rhumerus -50.264 8.42263 -94.8716
rradius 63.8362
rwrist 22.1005
rhand -17.4434 -29.1017
rfingers 7.12502
rthumb 8.8075 -58.8979
lclavicle 4.17448e-015 2.54444e-014
lhumerus -0.307953 -23.9823 70.1217
lradius 100.915
lwrist -13.3325
lhand -48.261 -16.0154
lfingers 7.12502
lthumb -20.9192 12.8766
rfemur -38.1332 -8.11501 16.5328
rtibia 86.6232
rfoot 22.7975 3.08722
rtoes 8.28283
lfemur -33.4481 5.49559 -23.0998
ltibia 40.0018
lfoot -17.6165 -3.25706
ltoes 13.9821
835
root -8.70724 16.8567 11.3834 -171.534 -1.53934 -181.501
lowerback 3.27215 0.450643 -1.53104
upperback 5.04917 0.270507 -2.01814
thorax 3.36191 -0.0331926 -1.23062
lowerneck -12.1831 0.0812384 1.1482
upperneck 27.8477 -2.48691 1.43412
head 11.0084 -1.48533 -0.125027
rclavicle 3.77691e-015 -1.15295e-014
rhumerus -51.3504 8.85925 -95.1843
rradius 64.5424
rwrist 21.5054
rhand -15.6629 -28.8595
rfingers 7.12502
rthumb 10.5253 -58.5759
lclavicle 3.77691e-015 -1.15295e-014
lhumerus 0.733772 -22.433 69.8636
lradius 99.7239
lwrist -14.7338
lhand -50.323 -25.5434
lfingers 7.12502
lthumb -22.899 3.1169
rfemur -36.7495 -8.0343 16.3329
rtibia 86.0885
rfoot 21.3867 1.86025
rtoes 11.1467
lfemur -33.6295 5.30805 -22.7806
ltibia 39.9506
lfoot -17.292 -3.26295
ltoes 14.7489
836
root -8.69012 16.8469 11.462 -171.471 -1.27856 -181.48
lowerback 3.17535 0.456645 -1.50103
upperback 4.93841 0.290046 -2.1317
thorax 3.30238 -0.0163593 -1.36361
lowerneck -12.2599 0.174235 1.15952
upperneck 27.8842 -2.37794 1.49761
head 11.0384 -1.42724 -0.0911454
rclavicle -4.17448e-015 3.97569e-016
rhumerus -52.3417 9.386 -95.5454
rradius 65.0736
rwrist 21.2394
rhand -14.1048 -28.7303
rfingers 7.12502
rthumb 12.0281 -58.3647
lclavicle -4.17448e-015 3.97569e-016
lhumerus 1.7247 -20.9193 69.6575
lradius 98.3198
lwrist -15.9435
lhand -52.179 -35.3006
lfingers 7.12502
lthumb -24.679 -6.87214
rfemur -35.5289 -7.87285 16.0067
rtibia 85.441
rfoot 19.6508 0.750211
rtoes 13.3267
lfemur -33.9872 5.10035 -22.5955
ltibia 39.9536
lfoot -16.9303 -3.10487
ltoes 15.2714
837
root -8.67514 16.8413 11.5372 -171.44 -1.01231 -181.345
lowerback 3.05173 0.438636 -1.32206
upperback 4.85996 0.279292 -2.20421
thorax 3.29182 -0.0105511 -1.53785
lowerneck -12.2551 0.262391 1.12893
upperneck 27.8007 -2.24007 1.54079
head 11.006 -1.36069 -0.0513058
rclavicle 6.36111e-015 9.93923e-015
rhumerus -53.2902 10.077 -95.9746
rradius 65.5948
rwrist 20.9002
rhand -12.9173 -28.6986
rfingers 7.12502
rthumb 13.1729 -58.2625
lclavicle 6.36111e-015 9.93923e-015
lhumerus 2.66336 -19.412 69.4513
lradius 96.9265
lwrist -16.459
lhand -53.2146 -43.2781
lfingers 7.12502
lthumb -25.6713 -14.989
rfemur -34.146 -7.61161 15.8042
rtibia 84.5487
rfoot 17.5908 -0.499195
rtoes 15.6658
lfemur -34.3095 4.93946 -22.2995
ltibia 39.9745
lfoot -16.571 -2.90843
ltoes 15.8166
838
root -8.6569 16.8311 11.6182 -171.382 -0.774258 -181.234
lowerback 2.89722 0.447864 -1.16617
upperback 4.8093 0.302959 -2.30175
thorax 3.32836 0.0105051 -1.72538
lowerneck -12.2364 0.318191 1.28368
upperneck 27.677 -2.17932 1.5532
head 10.9547 -1.3124 -0.0638269
rclavicle -2.38542e-015 -1.94809e-014
rhumerus -54.1157 10.6819 -96.4081
rradius 66.0797
rwrist 20.7072
rhand -11.9975 -28.62
rfingers 7.12502
rthumb 14.0594 -58.1245
lclavicle -2.38542e-015 -1.94809e-014
lhumerus 3.63849 -18.103 69.1907
lradius 95.5984
lwrist -15.8168
lhand -53.2654 -48.8957
lfingers 7.12502
lthumb -25.7199 -20.6136
rfemur -32.7854 -7.34996 15.6234
rtibia 83.4766
rfoot 15.2078 -1.74926
rtoes 17.1243
lfemur -34.7108 4.77361 -22.0266
ltibia 40.0349
lfoot -16.215 -2.69482
ltoes 16.139
839
root -8.63744 16.8226 11.6943 -171.342 -0.482941 -180.973
lowerback 2.70844 0.451627 -0.918036
upperback 4.77123 0.322361 -2.31978
thorax 3.39749 0.0327105 -1.88251
lowerneck -12.1748 0.426693 1.42011
upperneck 27.4937 -1.99838 1.47234
head 10.871 -1.22062 -0.0902449
rclavicle -8.74653e-015 -4.05521e-014
rhumerus -54.8783 11.4756 -96.87
rradius 66.4833
rwrist 20.5106
rhand -11.1628 -28.5247
rfingers 7.12502
rthumb 14.8637 -57.9715
lclavicle -8.74653e-015 -4.05521e-014
lhumerus 4.4024 -16.8248 69.0107
lradius 94.2641
lwrist -14.8802
lhand -52.8873 -52.5037
lfingers 7.12502
lthumb -25.3578 -24.1697
rfemur -31.3062 -6.88259 15.6018
rtibia 82.0972
rfoot 12.6057 -3.17116
rtoes 18.5165
lfemur -35.0866 4.70427 -21.599
ltibia 40.1156
lfoot -15.9072 -2.40469
ltoes 16.2694
840
root -8.61685 16.8114 11.7731 -171.326 -0.126284 -180.88
lowerback 2.73719 0.478212 -0.850065
upperback 4.60961 0.366997 -2.39813
thorax 3.21583 0.0630331 -2.00018
lowerneck -12.1483 0.507458 1.55435
upperneck 27.5112 -1.91924 1.4528
head 10.8715 -1.17746 -0.110929
rclavicle -3.77691e-015 -2.54444e-014
rhumerus -55.7458 12.2336 -97.3328
rradius 66.9023
rwrist 20.1966
rhand -10.0168 -28.2983
rfingers 7.12502
rthumb 15.9675 -57.6601
lclavicle -3.77691e-015 -2.54444e-014
lhumerus 4.93105 -15.7554 68.8642
lradius 92.8726
lwrist -13.802
lhand -52.3772 -52.3736
lfingers 7.12502
lthumb -24.869 -23.9711
rfemur -29.7736 -6.31265 15.3779
rtibia 80.4777
rfoot 10.0029 -4.48108
rtoes 19.7139
lfemur -35.4402 4.64827 -21.3493
ltibia 40.2423
lfoot -15.624 -2.09948
ltoes 16.4259
